Simulation
nRows=28
nColumns=15
endheader
time  TH_x TH_y TH_z SC_y  SC_z  SC_x  AC_y  AC_z  AC_x  GH_y  GH_z  GH_yy  EL_x  PS_y
0.0  0.000000  0.000000  0.000000  -26.270135918796598  -1.1813450814954254  3.893215471411373  51.901851980361606  4.787733152354473  -4.9340186175391025  20.35101909403873  13.64895151264031  23.060684343236666  27.081153659272346  0.000000
0.039  0.000000  0.000000  0.000000  -26.14506784809541  -0.7955903918006622  3.8890113006407105  51.11905413584339  5.040091597240835  -5.205553197774147  20.313377197731725  13.667957448585817  23.127957818863333  26.773252800204695  0.000000
0.078  0.000000  0.000000  0.000000  -25.934331513226677  -0.6372098775571683  4.1442717029425475  50.63276121311017  4.821801939985723  -5.642842440933667  20.390911611828805  13.437394686383534  23.130119021491144  26.232836658492676  0.000000
0.11699999999999999  0.000000  0.000000  0.000000  -25.820000873886332  -0.6266481760485779  4.661560731124632  50.44627231884551  4.43625316668037  -6.124642229773213  20.67458837727396  13.095169445566672  22.96103691999567  25.848905347334565  0.000000
0.156  0.000000  0.000000  0.000000  -25.69428933815385  -0.6926390869601011  5.218630940368556  50.45358480646482  4.020458953280512  -6.474193670462065  21.14801402524434  12.821762433489619  22.323910020878504  25.519179368323982  0.000000
0.195  0.000000  0.000000  0.000000  -25.61363403163683  -0.7954636810608595  5.692908629198387  50.70949175702179  3.697251384006747  -6.663876141284553  21.96395138719072  12.816809474046815  21.12583910145166  25.25648052849507  0.000000
0.23399999999999999  0.000000  0.000000  0.000000  -25.57895304628179  -0.889850746825338  6.007501857118658  51.06728248011963  3.4996773518793334  -6.635207330160949  23.199967706538256  13.171777300887438  19.244881966959404  25.07683440382904  0.000000
0.273  0.000000  0.000000  0.000000  -25.63403235117032  -0.9766907918918537  6.139705231878137  51.55326073089404  3.435938578523214  -6.3987838380021955  24.92763870706743  13.956193450296562  16.62465675829875  24.954294923192183  0.000000
0.312  0.000000  0.000000  0.000000  -25.79123026970558  -1.059101101800106  6.098442901825448  52.116958189736636  3.508863248696618  -5.969865354616361  27.140206550350747  15.158381551097795  13.28244759712727  24.881610102857877  0.000000
0.351  0.000000  0.000000  0.000000  -26.005240635092886  -1.127276676417299  5.916956754137355  52.73915072096859  3.695851059259977  -5.40016361670184  29.708795406665942  16.72247520027393  9.31696646227271  24.822021848935957  0.000000
0.39  0.000000  0.000000  0.000000  -26.209793771067552  -1.1669902245663066  5.659112686021529  53.36625232719941  4.009336589370602  -4.776925370568918  32.44304294428493  18.544669115916303  4.972080511207407  24.801485075506307  0.000000
0.429  0.000000  0.000000  0.000000  -26.3540357115074  -1.159171385958855  5.389358768078217  53.964186674287426  4.4511707439727415  -4.172176146532766  35.12961266282691  20.530345401803594  0.5417532430376379  24.836719943518286  0.000000
0.46799999999999997  0.000000  0.000000  0.000000  -26.43096391622962  -1.1070274314148472  5.164774369287336  54.533479329765626  5.011387324287084  -3.6288300663268154  37.60100421444283  22.61689154176436  -3.7184427028615885  24.935805604538213  0.000000
0.507  0.000000  0.000000  0.000000  -26.445195872582755  -1.0139875844067145  5.021530403934445  55.092151248645685  5.6349945908791  -3.1486999800000137  39.756936406566275  24.780362997637138  -7.676915972520973  25.058185608952154  0.000000
0.546  0.000000  0.000000  0.000000  -26.400440520034802  -0.8877406070085961  4.978242255474388  55.65582061344435  6.276450699567721  -2.730283408306154  41.575337368269565  27.005842889495543  -11.307761317687765  25.177073966328162  0.000000
0.585  0.000000  0.000000  0.000000  -26.30471193983168  -0.7268967772706949  5.037142979269248  56.214982643076084  6.912590842875303  -2.371984280356774  43.10645991824206  29.275541797618757  -14.659651860414936  25.27126076550781  0.000000
0.624  0.000000  0.000000  0.000000  -26.19280738619754  -0.5261667014868016  5.194114888132418  56.74631136548038  7.542810761283606  -2.075530740804397  44.44404219956667  31.562118018673864  -17.83657176078111  25.336738741252457  0.000000
0.663  0.000000  0.000000  0.000000  -26.108703076745446  -0.27830472480669766  5.437922037336711  57.2190906220149  8.176142654487235  -1.8369222005046544  45.691142628793166  33.83763418723673  -20.958216358847984  25.36229447223001  0.000000
0.702  0.000000  0.000000  0.000000  -26.079975700043512  0.0222937543028898  5.755702316644451  57.61370197331669  8.82214428876744  -1.6427505227730888  46.91478316834851  36.07969288681599  -24.102757376765044  25.33987742620613  0.000000
0.741  0.000000  0.000000  0.000000  -26.096816147430733  0.3829453246765493  6.132600146662201  57.92978920259641  9.489543867659858  -1.4710051201200842  48.11810495587647  38.28062618809817  -27.247801167941546  25.26424933186644  0.000000
0.78  0.000000  0.000000  0.000000  -26.12377749312199  0.8078141604933652  6.549522131767421  58.18292089777788  10.186744243726155  -1.2883777413587638  49.25209122430968  40.43747652473111  -30.27442244665902  25.14546822615207  0.000000
0.819  0.000000  0.000000  0.000000  -26.12987513973312  1.2954518351142037  6.978834552966448  58.39060980555818  10.91494535583307  -1.0636920928141125  50.2483259055114  42.55296035678983  -33.03449730145236  25.00024335008379  0.000000
0.858  0.000000  0.000000  0.000000  -26.108786310219926  1.8342519872270195  7.387952703437878  58.56304856116628  11.668027803551672  -0.7693828039937207  51.049135979914325  44.61447919735014  -35.425216683082695  24.837249674953853  0.000000
0.897  0.000000  0.000000  0.000000  -26.08642552159782  2.4038233232860784  7.746355780172929  58.704408847027985  12.43018642217215  -0.39430677087256466  51.62941637513843  46.59984564913076  -37.41529806890345  24.682999564273263  0.000000
0.9359999999999999  0.000000  0.000000  0.000000  -26.1035430910572  2.980600140462723  8.028495416189452  58.81598451183095  13.191295082105674  0.06482043946291298  52.002967556204055  48.4804118044049  -39.0217468227879  24.570514926699477  0.000000
0.975  0.000000  0.000000  0.000000  -26.184412835657998  3.5436226168599045  8.227621730760944  58.90000811743164  13.94879348073283  0.5907590804454839  52.19947934606502  50.23823120813667  -40.29145390959162  24.51655511555317  0.000000
1.014  0.000000  0.000000  0.000000  -26.331407626157265  4.081732655203687  8.358767650379407  58.95669112020282  14.701831932037347  1.1614027441257195  52.255730341567805  51.87019284016186  -41.28538624600173  24.512843898791168  0.000000
1.053  0.000000  0.000000  0.000000  -26.5282917898617  4.593149243504085  8.454330700714841  58.98676160568095  15.448278159490888  1.7480204322485977  52.205905112709736  53.388809106055376  -42.07761912609901  24.53207309659785  0.000000
